Coordinates
version=1
nRows=14
nColumns=24
inDegrees=yes

Units are S.I. units (second, meters, Newtons, ...)
Angles are in degrees.

endheader
time	pelvis_tilt	pelvis_list	pelvis_rotation	pelvis_tx	pelvis_ty	pelvis_tz	hip_flexion_r	hip_adduction_r	hip_rotation_r	knee_angle_r	ankle_angle_r	subtalar_angle_r	mtp_angle_r	hip_flexion_l	hip_adduction_l	hip_rotation_l	knee_angle_l	ankle_angle_l	subtalar_angle_l	mtp_angle_l	lumbar_extension	lumbar_bending	lumbar_rotation
      1.62000000	     13.44258462	     -8.27948286	      3.01198133	     -0.18945066	      0.96322347	     -0.04075165	      4.43591023	      7.82581202	    -17.38589665	    -20.82785808	     11.71786728	    -16.77396452	     23.64960933	    -21.13237267	     -5.63361923	    -11.68425740	     -5.85856348	     23.98660608	     -2.78495947	     10.68535891	    -21.77000712	      8.56616788	      2.07211745
      1.62500000	     13.71217610	     -8.44214801	      3.35480942	     -0.18345005	      0.96265119	     -0.04077719	      3.72611485	      8.19942524	    -18.10122392	    -18.21766415	     11.34085625	    -15.81961644	     24.26886006	    -21.70156419	     -5.96202772	    -11.65728904	     -6.01079793	     24.42141331	     -2.58807974	     10.45409081	    -21.94839649	      8.85218114	      1.87945864
      1.63000000	     13.94807449	     -8.56030689	      3.69272012	     -0.17742602	      0.96195881	     -0.04074211	      3.04567628	      8.54860213	    -18.82159749	    -15.61235796	     10.94866860	    -14.74484839	     24.94359612	    -22.21914879	     -6.25480623	    -11.63043348	     -6.19537929	     24.85303553	     -2.38723103	     10.24043367	    -22.08425872	      9.08505708	      1.67177679
      1.63500000	     14.14377194	     -8.62445682	      3.99743480	     -0.17140050	      0.96113191	     -0.04063822	      2.41920649	      8.85341236	    -19.52526004	    -13.06073321	     10.50440251	    -13.52405271	     25.74579499	    -22.70112035	     -6.48499834	    -11.58998512	     -6.37272251	     25.29179260	     -2.19452381	     10.01297416	    -22.17834158	      9.24883347	      1.46682573
      1.64000000	     14.21169879	     -8.61950389	      4.27220633	     -0.16545289	      0.96004568	     -0.04046041	      1.97635226	      9.08082806	    -20.20572923	    -10.62398608	      9.87594169	    -12.40629431	     28.39802503	    -22.99619214	     -6.64934903	    -11.53886997	     -6.65102076	     25.87582108	     -1.87116720	      9.19054790	    -22.14426105	      9.32732019	      1.22961446
      1.64500000	     14.32958929	     -8.57266898	      4.50368012	     -0.15948875	      0.95896404	     -0.04020251	      1.47379358	      9.28994806	    -20.77726697	     -8.24911359	      9.47565662	    -11.06932401	     28.68929476	    -23.39878885	     -6.74393029	    -11.42488368	     -6.83016216	     26.23367338	     -1.86920618	      9.14996969	    -22.17042551	      9.34481211	      1.03568692
      1.65000000	     14.34550740	     -8.45244652	      4.71079613	     -0.15366116	      0.95769774	     -0.03989837	      1.15745687	      9.39468576	    -21.38520200	     -6.08654453	      9.10288766	     -9.60191445	     29.07810911	    -23.63276484	     -6.76849255	    -11.29616777	     -7.12126829	     26.64856080	     -1.77499481	      9.11328787	    -22.10641458	      9.27396066	      0.82835639
      1.65500000	     14.30708880	     -8.31885501	      4.85009495	     -0.14781004	      0.95630947	     -0.03951064	      0.94102134	      9.47011553	    -21.93569391	     -4.08585885	      8.81715823	     -8.01015205	     29.64542885	    -23.83664961	     -6.74930271	    -11.19866359	     -7.38005983	     27.03965781	     -1.73451350	      9.02491813	    -21.98951529	      9.16839701	      0.67343852
      1.66000000	     14.21691639	     -8.14595569	      4.97661199	     -0.14204894	      0.95482733	     -0.03906864	      0.81762906	      9.49618943	    -22.42434626	     -2.21707702	      8.50806505	     -6.51488652	     30.22025000	    -23.95604465	     -6.69169176	    -11.05991984	     -7.69090660	     27.44055818	     -1.70331032	      8.93161185	    -21.82983762	      9.01208917	      0.50370374
      1.66500000	     14.09136306	     -7.94404331	      5.08790020	     -0.13634778	      0.95327307	     -0.03860687	      0.76500698	      9.47824914	    -22.83343363	     -0.48301331	      8.19009173	     -5.13776966	     30.68361411	    -24.02419143	     -6.60027034	    -10.90908361	     -8.02863113	     27.88406941	     -1.67211178	      8.87390679	    -21.64328706	      8.82159878	      0.30624421
      1.67000000	     13.94209491	     -7.74363126	      5.17034767	     -0.13065911	      0.95168428	     -0.03809994	      0.76915701	      9.44507718	    -23.20924458	      1.10544379	      7.91705283	     -3.72389874	     31.16564240	    -24.06688639	     -6.50048281	    -10.77048290	     -8.37525811	     28.26766074	     -1.66332281	      8.80477898	    -21.43783920	      8.62340470	      0.16341838
      1.67500000	     13.76633202	     -7.53603785	      5.23480350	     -0.12500049	      0.95006784	     -0.03754770	      0.83040272	      9.38879256	    -23.51470636	      2.55312859	      7.65148827	     -2.43929149	     31.62468411	    -24.07230289	     -6.39024518	    -10.63133927	     -8.74501252	     28.62032440	     -1.65754299	      8.74068578	    -21.20969554	      8.40731277	      0.05368842
      1.68000000	     13.59110095	     -7.32477912	      5.29430563	     -0.11933833	      0.94845018	     -0.03699975	      0.90731777	      9.31373665	    -23.75927264	      3.87492539	      7.39089950	     -1.27815672	     32.02983129	    -24.08146793	     -6.27361003	    -10.50004035	     -9.11299850	     28.99556234	     -1.65611276	      8.69940957	    -20.98572133	      8.19087531	     -0.07835653
      1.68500000	     13.38693140	     -7.13710558	      5.36962078	     -0.11366873	      0.94681694	     -0.03643750	      1.02901958	      9.25064292	    -23.93728566	      5.08047208	      7.12602698	     -0.32099624	     32.30427964	    -24.04613492	     -6.19271333	    -10.36046647	     -9.50153269	     29.34237547	     -1.64600809	      8.69713825	    -20.72749097	      7.99929642	     -0.21583761
